<svg width="14" height="14" viewBox="0 0 14 14" fill="none" xmlns="http://www.w3.org/2000/svg">
    <path
        d="M13.36 3.79433C13.2073 3.21951 12.7575 2.76679 12.1864 2.61316C11.1513 2.33398 7.00033 2.33398 7.00033 2.33398C7.00033 2.33398 2.84942 2.33398 1.81423 2.61316C1.24312 2.76682 0.793319 3.21951 0.640656 3.79433C0.363281 4.83624 0.363281 7.01008 0.363281 7.01008C0.363281 7.01008 0.363281 9.18392 0.640656 10.2258C0.793319 10.8007 1.24312 11.2345 1.81423 11.3881C2.84942 11.6673 7.00033 11.6673 7.00033 11.6673C7.00033 11.6673 11.1512 11.6673 12.1864 11.3881C12.7575 11.2345 13.2073 10.8007 13.36 10.2258C13.6374 9.18392 13.6374 7.01008 13.6374 7.01008C13.6374 7.01008 13.6374 4.83624 13.36 3.79433ZM5.64274 8.98377V5.0364L9.11209 7.01013L5.64274 8.98377Z"
        fill="white" />
</svg>